<svg width="767" height="688" viewBox="0 0 767 688" fill="none" xmlns="http://www.w3.org/2000/svg">
<line x1="34.295" y1="309.957" x2="417.547" y2="693.209" stroke="#464A4D" stroke-opacity="0.1"/>
<line x1="351.786" y1="696.038" x2="735.038" y2="312.786" stroke="#464A4D" stroke-opacity="0.1"/>
<line x1="126.219" y1="218.033" x2="509.471" y2="601.285" stroke="#464A4D" stroke-opacity="0.1"/>
<line x1="259.861" y1="604.114" x2="643.113" y2="220.862" stroke="#464A4D" stroke-opacity="0.1"/>
<line x1="218.143" y1="126.11" x2="601.394" y2="509.361" stroke="#464A4D" stroke-opacity="0.1"/>
<line x1="167.937" y1="512.19" x2="551.189" y2="128.938" stroke="#464A4D" stroke-opacity="0.1"/>
<line x1="310.066" y1="34.1856" x2="693.318" y2="417.438" stroke="#464A4D" stroke-opacity="0.1"/>
<line x1="76.0136" y1="420.266" x2="459.266" y2="37.0141" stroke="#464A4D" stroke-opacity="0.1"/>
<line x1="80.2569" y1="263.995" x2="463.509" y2="647.247" stroke="#464A4D" stroke-opacity="0.1"/>
<line x1="305.823" y1="650.076" x2="689.075" y2="266.824" stroke="#464A4D" stroke-opacity="0.1"/>
<line x1="172.181" y1="172.071" x2="555.433" y2="555.323" stroke="#464A4D" stroke-opacity="0.1"/>
<line x1="213.899" y1="558.152" x2="597.151" y2="174.9" stroke="#464A4D" stroke-opacity="0.1"/>
<line x1="264.105" y1="80.1476" x2="647.356" y2="463.399" stroke="#464A4D" stroke-opacity="0.1"/>
<line x1="121.976" y1="466.228" x2="505.227" y2="82.976" stroke="#464A4D" stroke-opacity="0.1"/>
<line x1="356.028" y1="-11.7763" x2="739.28" y2="371.476" stroke="#464A4D" stroke-opacity="0.1"/>
<line x1="30.0517" y1="374.304" x2="413.304" y2="-8.94789" stroke="#464A4D" stroke-opacity="0.1"/>
</svg>
